<?xml version="1.0" ?><svg xmlns="http://www.w3.org/2000/svg" xmlns:xlink="http://www.w3.org/1999/xlink" version="1.1" viewBox="0 0 512 512" style="enable-background:new 0 0 512 512;" xml:space="preserve"><g id="_x31_1_x2C__Maintenance_x2C__Metal_Gear_x2C__Electronics_x2C__Repair_x2C__Settings_x2C__Configuration_x2C__Cogwheel_x2C__Tools_and_Utensils"><g id="XMLID_144_"><g><path d="M375.492,110.997c-2.52,0-4.755-1.588-5.564-3.952c-1.608-4.704-3.532-9.353-5.719-13.819     c-1.088-2.222-0.623-4.911,1.158-6.692c10.124-10.125,10.122-26.51,0-36.631l-12.866-12.867c-10.1-10.099-26.532-10.098-36.632,0     c-1.781,1.781-4.47,2.246-6.692,1.158c-4.459-2.184-9.108-4.108-13.817-5.719c-2.365-0.809-3.953-3.045-3.953-5.574     c0-14.283-11.62-25.902-25.902-25.902h-18.202c-14.283,0-25.902,11.62-25.902,25.913c0,2.519-1.588,4.755-3.953,5.564     c-4.709,1.61-9.357,3.534-13.817,5.719c-2.222,1.088-4.912,0.623-6.693-1.158c-10.099-10.098-26.532-10.099-36.632,0     l-12.865,12.866c-10.124,10.124-10.123,26.509-0.001,36.632c1.781,1.781,2.247,4.47,1.158,6.693     c-2.185,4.461-4.109,9.11-5.718,13.817c-0.809,2.364-3.045,3.953-5.574,3.953c-14.283,0-25.902,11.62-25.902,25.902v18.202     c0,14.283,11.62,25.903,25.913,25.903c2.52,0,4.755,1.588,5.564,3.953c1.61,4.708,3.534,9.356,5.719,13.817     c1.088,2.222,0.623,4.912-1.158,6.693c-10.124,10.124-10.123,26.509-0.001,36.631l12.866,12.866     c10.124,10.123,26.51,10.122,36.632,0c1.781-1.78,4.472-2.247,6.692-1.159c4.459,2.185,9.108,4.109,13.818,5.72     c2.364,0.809,3.953,3.044,3.953,5.574c0,14.283,11.62,25.903,25.902,25.903h18.202c14.283,0,25.902-11.62,25.902-25.913     c0-2.519,1.588-4.755,3.953-5.564c4.711-1.611,9.359-3.535,13.816-5.719c2.225-1.089,4.913-0.623,6.693,1.158     c10.124,10.123,26.509,10.122,36.632,0l12.866-12.866c10.123-10.124,10.122-26.509,0-36.631     c-1.781-1.781-2.247-4.471-1.158-6.693c2.187-4.464,4.111-9.113,5.719-13.817c0.809-2.364,3.044-3.953,5.574-3.953     c14.283,0,25.902-11.62,25.902-25.903v-18.202C401.405,122.617,389.785,110.997,375.492,110.997z M312.973,202.569     c-31.191,31.191-81.944,31.192-113.137,0c-31.192-31.192-31.192-81.945,0-113.138c31.264-31.264,81.87-31.268,113.137,0     C344.165,120.624,344.165,171.377,312.973,202.569z"/></g><path d="M505.731,297.375c-10.956-19.203-35.361-25.874-54.561-14.92l-111.318,63.507c-4.576-19.994-22.495-34.961-43.857-34.961    h-108.43c-31.011-25.137-74.363-26.413-106.57-4.839v-25.161c0-5.523-4.477-10-10-10h-60c-5.523,0-10,4.477-10,10v220    c0,5.523,4.477,10,10,10h60c5.523,0,10-4.477,10-10v-10.03c164.087-0.002,156.873,0.008,157.264-0.009    c6.279-0.273,12.513-2.079,18.031-5.225l234.518-133.788C510.018,340.997,516.691,316.554,505.731,297.375z M60.995,491.001h-40    v-200h40V491.001z M480.9,334.574L246.383,468.363c-2.747,1.566-5.705,2.443-8.795,2.607H80.995V332.016    c26.03-26.609,68.359-28.182,96.291-3.52c1.827,1.613,4.181,2.504,6.619,2.504h112.09c13.785,0,25,11.215,25,25    c0,13.785-11.215,25-25,25h-121.58c-5.523,0-10,4.477-10,10c0,5.523,4.477,10,10,10h121.58c20.104,0,37.167-13.253,42.922-31.48    l122.164-69.694c9.595-5.473,21.795-2.15,27.282,7.466C493.847,316.891,490.49,329.107,480.9,334.574z"/></g></g><g id="Layer_1"/></svg>